PathFileType        4      (X/Y/Z)      C:\Users\pc\Desktop\IMUTRC\Sujet_04\Sujet_04_Tpose.trc         
DataRate	CameraRate	NumFrames	NumMarkers	Units	OrigDataRate	OrigDataStartFrame	OrigNumFrames
60.0	60.0	4	64	mm	60.0	1	149
Frame#	Time	pHipOrigin			pRightASI			pLeftASI			pRightCSI			pLeftCSI			pRightIschialTub			pLeftIschialTub			pSacrum			pL5SpinalProcess			pL3SpinalProcess			pT12SpinalProcess			pIJ			pT4SpinalProcess			pT8SpinalProcess			pPX			pC7SpinalProcess			pTopOfHead			pRightAuricularis			pLeftAuricularis			pBackOfHead			pRightAcromion			pLeftAcromion			pRightArmLatEpicondyle			pRightArmMedEpicondyle			pLeftArmLatEpicondyle			pLeftArmMedEpicondyle			pRightUlnarStyloid			pRightRadialStyloid			pRightOlecranon			pLeftUlnarStyloid			pLeftRadialStyloid			pLeftOlecranon			pRightTopOfHand			pRightPinky			pRightBallHand			pLeftTopOfHand			pLeftPinky			pLeftBallHand			pRightGreaterTrochanter			pRightKneeLatEpicondyle			pRightKneeMedEpicondyle			pRightPatella			pLeftGreaterTrochanter			pLeftKneeLatEpicondyle			pLeftKneeMedEpicondyle			pLeftPatella			pRightTibialTub			pRightLatMalleolus			pRightMedMalleolus			pLeftTibialTub			pLeftLatMalleolus			pLeftMedMalleolus			pRightHeelFoot			pRightFirstMetatarsal			pRightFifthMetatarsal			pRightPivotFoot			pRightHeelCenter			pRightToe			pLeftHeelFoot			pLeftFirstMetatarsal			pLeftFifthMetatarsal			pLeftPivotFoot			pLeftHeelCenter			pLeftToe			
		X1	Y1	Z1	X2	Y2	Z2	X3	Y3	Z3	X4	Y4	Z4	X5	Y5	Z5	X6	Y6	Z6	X7	Y7	Z7	X8	Y8	Z8	X9	Y9	Z9	X10	Y10	Z10	X11	Y11	Z11	X12	Y12	Z12	X13	Y13	Z13	X14	Y14	Z14	X15	Y15	Z15	X16	Y16	Z16	X17	Y17	Z17	X18	Y18	Z18	X19	Y19	Z19	X20	Y20	Z20	X21	Y21	Z21	X22	Y22	Z22	X23	Y23	Z23	X24	Y24	Z24	X25	Y25	Z25	X26	Y26	Z26	X27	Y27	Z27	X28	Y28	Z28	X29	Y29	Z29	X30	Y30	Z30	X31	Y31	Z31	X32	Y32	Z32	X33	Y33	Z33	X34	Y34	Z34	X35	Y35	Z35	X36	Y36	Z36	X37	Y37	Z37	X38	Y38	Z38	X39	Y39	Z39	X40	Y40	Z40	X41	Y41	Z41	X42	Y42	Z42	X43	Y43	Z43	X44	Y44	Z44	X45	Y45	Z45	X46	Y46	Z46	X47	Y47	Z47	X48	Y48	Z48	X49	Y49	Z49	X50	Y50	Z50	X51	Y51	Z51	X52	Y52	Z52	X53	Y53	Z53	X54	Y54	Z54	X55	Y55	Z55	X56	Y56	Z56	X57	Y57	Z57	X58	Y58	Z58	X59	Y59	Z59	X60	Y60	Z60	X61	Y61	Z61	X62	Y62	Z62	X63	Y63	Z63	X64	Y64	Z64	
1	0.0	-41.31589	1006.20075	-745.7084099999998	32.82157	1114.14211	-600.3227199999999	30.91468	1111.02175	-894.2722499999999	-14.79282	1186.48825	-627.4814199999998	-16.353	1183.94573	-868.0958899999999	-101.64286	946.04713	-684.5146699999999	-102.39406	944.77587	-804.8219099999999	-113.25754	1029.71902	-745.4772799999998	-72.63506	1127.66367	-746.4018299999999	-59.92248	1244.27271	-745.7084099999998	-59.69134	1351.34731	-744.0904499999999	105.74556	1567.80788	-744.0326699999999	-50.44583	1551.22374	-739.6410499999998	-59.28685	1458.30634	-741.7790699999999	98.92699	1440.50872	-747.1530299999998	-43.33834	1606.92796	-737.1563099999998	26.46528	1847.94693	-734.1515199999999	35.19073	1750.40676	-669.8952099999999	15.13953	1755.8385	-805.5731099999999	-28.14103	1753.64269	-729.8176899999999	-23.51827	1585.02765	-550.0502399999999	-40.39134	1571.62165	-934.4902299999999	25.13624	1430.62758	-282.3348599999999	66.85662	1387.17367	-311.80492999999996	47.2099	1467.55185	-1206.59724	104.06981	1442.8201	-1181.1143	74.07967	1337.13233	-50.04133999999991	73.73297	1388.73385	-35.19072999999992	44.32068	1385.15121	-304.29294999999996	131.69078	1409.94074	-1442.24226	111.524	1457.95963	-1455.35933	83.20962	1432.36111	-1187.35502	106.72789	1345.8	178.2650500000001	100.66052	1306.67992	80.72489000000009	96.15334	1337.94131	0.40449000000008195	225.18603	1442.53118	-1647.03037	208.25518	1402.37098	-1551.22374	164.16564	1424.618	-1480.38	-40.79583	975.05492	-570.0436699999999	-83.55632	542.59605	-592.29068	-84.42309	540.45802	-676.42485	-36.92427	540.11132	-637.5937	-38.71559	972.97468	-921.3153799999999	-90.02818	541.32479	-901.49531	-94.99765	539.18677	-817.53449	-45.64972	538.03108	-853.99649	-27.5054	499.8933400000001	-636.66914	-122.84976	94.65094000000005	-592.11733	-123.54317	92.91741000000005	-658.3961	-35.65301	499.1999200000001	-854.45876	-123.4276	92.68627000000005	-903.34441	-127.29916	90.95273000000006	-837.18121	-168.44169	5.373950000000038	-621.29848	4.16048	-0.3467099999999589	-672.09102	8.89881	1.040120000000036	-587.55236	30.45241	-0.3467099999999613	-632.27753	-125.85455	6.471860000000039	-623.66764	121.05844	-0.808979999999961	-637.36256	-168.61504	2.4269500000000535	-866.99799	5.31617	3.8715600000000503	-820.65485	7.85869	-0.4622799999999446	-905.13573	30.56798	1.6757500000000527	-861.04619	-126.08568	4.564970000000053	-865.8423	121.23179	0.8667700000000526	-858.27254	
2	0.017	-41.14253	1006.31631	-745.7084099999998	32.99492	1114.1999	-600.3227199999999	31.08804	1111.13732	-894.2722499999999	-14.61947	1186.60382	-627.4236299999999	-16.17965	1184.0613	-868.0381099999998	-101.46951	946.10491	-684.5146699999999	-102.2207	944.89144	-804.8219099999999	-113.08418	1029.83459	-745.4772799999998	-72.46171	1127.77924	-746.4018299999999	-59.80691	1244.33049	-745.7084099999998	-59.57577	1351.40509	-744.1482299999999	105.5722	1568.0968	-744.0326699999999	-50.5614	1551.33931	-739.6988299999999	-59.34464	1458.4219	-741.8368599999999	98.92699	1440.73986	-747.0952399999999	-43.5117	1607.04353	-737.2140999999999	26.17636	1848.12028	-734.3248799999999	34.9596	1750.58012	-670.0685599999999	14.79282	1755.95407	-805.6886799999999	-28.42995	1753.81605	-729.8754699999998	-23.57606	1585.31657	-550.1658099999999	-40.44912	1571.79501	-934.5480199999998	24.84732	1431.89884	-281.9881499999999	66.50991	1388.32936	-311.28486999999996	46.68984	1467.89856	-1206.82838	103.60753	1443.22459	-1181.40322	73.44404	1339.27035	-49.290139999999916	73.21291	1390.92966	-34.670669999999916	44.03176	1386.36469	-303.77288999999996	130.88179	1410.63416	-1442.64675	110.65723	1458.65304	-1455.64825	82.74734	1432.70782	-1187.64394	105.97669	1348.92036	179.0162500000001	99.96711	1309.33801	81.64944000000008	95.51771	1340.25269	1.1556900000000823	224.08812	1443.45573	-1647.49265	207.27285	1403.17996	-1551.68602	163.29887	1425.31141	-1480.78449	-40.62247	975.11271	-570.0436699999999	-83.49854	542.71162	-592.34847	-84.36531	540.57359	-676.48264	-36.86648	540.22689	-637.65148	-38.60002	973.09025	-921.3153799999999	-89.9704	541.44036	-901.43753	-94.93986	539.36012	-817.41893	-45.59194	538.14665	-853.9387	-27.44762	500.00890000000004	-636.72693	-122.84976	94.76651000000004	-592.11733	-123.54317	93.03298000000004	-658.3961	-35.59523	499.31549000000007	-854.34319	-123.36982	92.80184000000006	-903.34441	-127.24137	91.06830000000005	-837.18121	-168.44169	5.489520000000038	-621.24069	4.16048	-0.2889199999999589	-672.03323	8.89881	1.155690000000036	-587.55236	30.45241	-0.2889199999999613	-632.27753	-125.85455	6.5874300000000385	-623.66764	121.05844	-0.751199999999961	-637.30477	-168.61504	2.5425200000000534	-866.99799	5.37395	3.9871300000000502	-820.59707	7.85869	-0.3467099999999446	-905.13573	30.56798	1.7913200000000526	-860.98841	-126.0279	4.680540000000053	-865.8423	121.23179	0.9245500000000525	-858.27254	
3	0.033	-40.9114	1006.3741	-745.7084099999998	33.22606	1114.31546	-600.3227199999999	31.31918	1111.25289	-894.2722499999999	-14.44611	1186.6616	-627.4236299999999	-15.94851	1184.17687	-868.0381099999998	-101.29615	946.22048	-684.5724599999999	-102.04735	945.00701	-804.8796999999998	-112.91083	1029.95016	-745.4772799999998	-72.23057	1127.83703	-746.4018299999999	-59.63356	1244.44606	-745.7084099999998	-59.51799	1351.52066	-744.1482299999999	105.45663	1568.32794	-744.0326699999999	-50.73475	1551.3971	-739.7566199999999	-59.34464	1458.47969	-741.8946399999999	98.92699	1440.971	-747.0952399999999	-43.68505	1607.10131	-737.2718799999999	25.82965	1848.29363	-734.4982299999999	34.72846	1750.75347	-670.1841299999999	14.44611	1756.06964	-805.8042499999999	-28.71888	1753.93162	-729.9910399999999	-23.63384	1585.60549	-550.2813799999999	-40.5069	1571.96836	-934.6057999999999	24.61618	1433.1701	-281.6414399999999	66.22099	1389.42726	-310.76480999999995	46.22757	1468.30305	-1207.00173	103.14526	1443.5713	-1181.69214	72.8662	1341.35059	-48.596729999999916	72.69285	1393.12547	-34.150609999999915	43.68505	1387.52038	-303.25282999999996	130.01503	1411.26979	-1442.99345	109.79047	1459.28867	-1455.99496	82.28507	1433.11231	-1187.93286	105.2255	1352.0985	179.7096600000001	99.2737	1312.05388	82.57399000000008	94.88208	1342.56407	1.9068900000000821	222.93243	1444.38028	-1647.95492	206.29051	1403.98895	-1552.14829	162.43211	1426.06261	-1481.18898	-40.44912	975.22828	-570.0436699999999	-83.44076	542.7694	-592.40625	-84.36531	540.68916	-676.54042	-36.8087	540.28467	-637.70926	-38.42666	973.20582	-921.3153799999999	-89.9704	541.55593	-901.37974	-94.88208	539.47569	-817.36114	-45.53415	538.26221	-853.88092	-27.38983	500.12447000000003	-636.78471	-122.84976	94.88208000000004	-592.11733	-123.54317	93.14854000000004	-658.3961	-35.53744	499.43106000000006	-854.28541	-123.36982	92.91741000000006	-903.34441	-127.18359	91.18387000000006	-837.18121	-168.44169	5.605090000000038	-621.24069	4.16048	-0.17334999999995884	-672.03323	8.89881	1.213470000000036	-587.55236	30.45241	-0.2311399999999613	-632.27753	-125.91233	6.7030000000000385	-623.60986	121.00065	-0.6356299999999611	-637.30477	-168.55726	2.715870000000053	-866.9402	5.37395	4.10270000000005	-820.59707	7.91647	-0.2889199999999446	-905.07795	30.62576	1.8491000000000526	-860.98841	-126.0279	4.796110000000053	-865.78452	121.28957	1.0401200000000526	-858.27254	
4	0.05	-40.73804	1006.48967	-745.7084099999998	33.39942	1114.37325	-600.3227199999999	31.49253	1111.36846	-894.2722499999999	-14.21498	1186.77717	-627.4236299999999	-15.77516	1184.29244	-868.0381099999998	-101.1228	946.33605	-684.5724599999999	-101.874	945.06479	-804.8796999999998	-112.73748	1030.06573	-745.5350599999999	-72.05722	1127.9526	-746.4018299999999	-59.51799	1244.50385	-745.7661999999999	-59.46021	1351.57844	-744.2060199999999	105.28328	1568.55908	-744.0326699999999	-50.85032	1551.45488	-739.8143999999999	-59.40242	1458.53747	-741.9524199999998	98.92699	1441.25992	-747.0374599999999	-43.91619	1607.21688	-737.3296699999999	25.59851	1848.4092	-734.6137999999999	34.49732	1750.92682	-670.2996999999999	14.09941	1756.18521	-805.9198199999998	-29.0078	1754.04718	-730.0488299999998	-23.74941	1585.89442	-550.3969499999998	-40.56469	1572.14172	-934.6635899999999	24.38504	1434.44135	-281.3525199999999	65.93207	1390.52517	-310.30252999999993	45.70751	1468.59197	-1207.17509	102.74076	1443.91801	-1181.98106	72.28836	1343.5464	-47.90330999999991	72.23057	1395.32128	-33.630549999999914	43.39613	1388.67606	-302.73276999999996	129.20605	1411.90542	-1443.39795	108.9237	1459.9243	-1456.28388	81.88058	1433.40123	-1188.22178	104.53208	1355.33443	180.4030700000001	98.58028	1314.82753	83.44076000000008	94.30423	1344.93323	2.658090000000082	221.89231	1445.24705	-1648.4172	205.36596	1404.79793	-1552.61057	161.50756	1426.75602	-1481.53569	-40.27577	975.28606	-570.1014499999999	-83.44076	542.88497	-592.46404	-84.30752	540.74695	-676.5982	-36.8087	540.40024	-637.76705	-38.31109	973.26361	-921.3153799999999	-89.91261	541.6715	-901.26417	-94.82429	539.59126	-817.30336	-45.53415	538.37778	-853.82313	-27.38983	500.2400400000001	-636.8425	-122.79197	94.93986000000004	-592.11733	-123.54317	93.26411000000004	-658.33832	-35.53744	499.54663000000005	-854.22762	-123.31203	93.09076000000006	-903.34441	-127.18359	91.29944000000006	-837.18121	-168.44169	5.720660000000038	-621.18291	4.16048	-0.11556999999995886	-672.03323	8.89881	1.329040000000036	-587.55236	30.45241	-0.11556999999996129	-632.27753	-125.91233	6.760780000000038	-623.60986	121.00065	-0.577839999999961	-637.30477	-168.55726	2.8314400000000535	-866.9402	5.43174	4.218270000000051	-820.59707	7.91647	-0.17334999999994458	-905.07795	30.62576	1.9646700000000525	-860.98841	-125.97012	4.969460000000053	-865.78452	121.34736	1.0979000000000527	-858.21475	
